<svg xmlns="http://www.w3.org/2000/svg" width="180.383" height="44.196" viewBox="0 0 180.383 44.196">
  <g id="Group_155" data-name="Group 155" transform="translate(0 -0.009)">
    <path id="XMLID_64_" d="M39.411,22.1A19.44,19.44,0,0,0,11.52,4.174a20.209,20.209,0,0,0,0,35.849A19.448,19.448,0,0,0,39.411,22.1Zm4.623,0c0,17.659-18.645,27.02-32.514,19.478a22.195,22.195,0,0,1,0-38.919C25.39-4.921,44.035,4.439,44.035,22.1Z" transform="translate(0 0)" fill="#ef4623" fill-rule="evenodd"/>
    <path id="XMLID_63_" d="M22.379,45.013a17.277,17.277,0,0,1-9.36-2.766A16.33,16.33,0,0,1,4.455,27.619a16.4,16.4,0,0,1,8.564-14.628,17.131,17.131,0,0,1,19.592.644,17.686,17.686,0,0,0-3.714-2.5C16.771,4.73.4,12.65.4,27.619S16.771,50.508,28.973,44.1a19.385,19.385,0,0,0,3.714-2.539A16.874,16.874,0,0,1,22.379,45.013Z" transform="translate(-0.248 -5.521)" fill="#ef4623" fill-rule="evenodd"/>
    <path id="XMLID_60_" d="M51.273,32.2c-.189.758-2.5,9.663-2.615,10.08a.668.668,0,0,1-1.137.3c-.265-.265-7.314-7.162-7.731-7.541a.65.65,0,0,1,.3-1.1c.644-.189,9.777-2.425,10.345-2.577A.7.7,0,0,1,51.273,32.2ZM35.281,51.456a.278.278,0,0,1-.227.076.312.312,0,0,1-.227-.152l-.493-.758a.34.34,0,0,1,.038-.417l3.941-3.827-.493-.758-6.329,6.063a.278.278,0,0,1-.227.076.312.312,0,0,1-.227-.152l-.531-.8a.34.34,0,0,1,.038-.417l5.192-5-.493-.758-4.169,3.941c-.038.076-.152.076-.227.076a.312.312,0,0,1-.227-.152l-.606-.947a.34.34,0,0,1,.038-.417l11.482-10.8,5.078,4.32Z" transform="translate(-18.607 -19.467)" fill="#ef4623"/>
    <path id="XMLID_41_" d="M221.255,53.749a1.326,1.326,0,1,1,1.326-1.326A1.343,1.343,0,0,1,221.255,53.749Zm-69.993-2.918h7.086v2.5H147.965V50.907l7.2-8.905h-5.684a1.466,1.466,0,0,1-1.4-1.478V39.5h10.459v2.387Zm-9.171-8.905h-2.5v8.905h2.16c2.691,0,3.638-1.516,3.638-4.4C145.389,43.669,144.555,41.925,142.092,41.925Zm2.084,11.141a10.658,10.658,0,0,1-2.8.3H136.9V41.016c0-.947.455-1.478,1.364-1.478h3.827c4.206,0,6.063,2.5,6.063,6.9C148.155,49.808,146.753,52.347,144.176,53.067Zm120.28.114V46.662c0-2.046-.417-3.714-2.766-3.714S257.6,45.412,257.6,47.8V53.18h-.909V46.662c0-1.857-.265-3.714-2.691-3.714-2.387,0-4.206,2.463-4.206,4.851V53.18h-.909V42.342h.909v1.895a4.931,4.931,0,0,1-.076.872h.038A4.929,4.929,0,0,1,254,42.039c2.2,0,3.259,1.023,3.486,2.956h.038a4.816,4.816,0,0,1,4.206-2.956c2.842,0,3.676,1.63,3.676,4.244v6.859h-.947ZM240.09,42.986a4.691,4.691,0,0,0-4.737,4.737,4.738,4.738,0,1,0,9.474,0A4.691,4.691,0,0,0,240.09,42.986Zm0,10.459a5.7,5.7,0,0,1-5.722-5.76,5.723,5.723,0,0,1,11.444,0A5.7,5.7,0,0,1,240.09,53.446ZM228.418,42.986a4.794,4.794,0,0,0,0,9.588,4.952,4.952,0,0,0,3.676-1.554l.493.758a5.7,5.7,0,0,1-4.169,1.705,5.665,5.665,0,1,1,0-11.331,5.4,5.4,0,0,1,3.941,1.554l-.568.72A4.69,4.69,0,0,0,228.418,42.986ZM215.95,45.3c-.189-.455-.72-.72-1.554-.72-1.023,0-1.516.3-1.516.834s.682.985,2.008,1.251a7.968,7.968,0,0,1,3.486,1.364,2.694,2.694,0,0,1,.72,1.895c0,2.653-2.008,3.6-4.737,3.6a4.988,4.988,0,0,1-3.259-.947,3.277,3.277,0,0,1-1.175-2.766h2.653c.076,1.175.872,1.592,2.16,1.592,1.1,0,1.63-.341,1.63-1.023,0-.531-.909-.985-2.691-1.326-2.274-.417-3.448-1.478-3.486-3.183,0-2.312,1.743-3.411,4.131-3.448a5.121,5.121,0,0,1,3.183.909,3.435,3.435,0,0,1,1.213,2.615h-1.63A1.071,1.071,0,0,1,215.95,45.3Zm-7.162.076c-1.44,0-2.16.8-2.16,2.35v5.609h-2.653V47.8c.076-3.486,1.857-5.192,5.305-5.192h.379v2.766Zm-10.194-.72c-1.1,0-1.781.72-1.971,2.16h3.9Q200.242,44.654,198.594,44.654Zm4.661,4.055h-6.67c.114,1.63.8,2.463,2.046,2.463a2.346,2.346,0,0,0,1.667-.758,1.1,1.1,0,0,1,.872-.379H203.1a4.2,4.2,0,0,1-4.51,3.524c-3.107-.114-4.7-2.008-4.7-5.646,0-3.676,1.592-5.495,4.737-5.495C201.891,42.418,203.445,44.5,203.255,48.709Zm-14.893-3.865c-1.4,0-2.122,1.023-2.2,3.107-.038,2.16.682,3.259,2.16,3.259s2.236-1.1,2.236-3.259C190.484,45.866,189.764,44.843,188.362,44.843Zm-.076,8.678c-3.221-.076-4.813-1.857-4.813-5.457,0-3.676,1.364-5.533,4.131-5.646a3.222,3.222,0,0,1,2.956,1.667V39.5h1.288a1.344,1.344,0,0,1,1.288,1.364v7.806C193.137,51.93,191.507,53.521,188.286,53.521Zm-6.859-.189c-.872-.076-1.288-.493-1.288-1.326V46.473a1.568,1.568,0,0,0-1.781-1.667c-1.137,0-1.743.531-1.743,1.667v6.859h-2.653V47c0-3.07,1.478-4.585,4.434-4.585s4.4,1.516,4.358,4.585v6.329ZM168.5,44.654c-1.1,0-1.781.72-1.971,2.16h3.9Q170.21,44.654,168.5,44.654Zm4.661,4.055H166.5c.114,1.63.8,2.463,2.046,2.463a2.346,2.346,0,0,0,1.667-.758,1.1,1.1,0,0,1,.872-.379h1.933a4.2,4.2,0,0,1-4.51,3.524c-3.107-.114-4.7-2.008-4.7-5.646,0-3.676,1.592-5.495,4.737-5.495C171.84,42.418,173.393,44.5,173.166,48.709Zm-10.383,2.463h.8v2.046a13.259,13.259,0,0,1-2.728-.038c-.985-.114-1.44-.72-1.44-1.933V39.5h1.364a1.339,1.339,0,0,1,1.251,1.364V42.57h1.554v.606A1.287,1.287,0,0,1,162.29,44.5h-.265v5.95C161.987,50.907,162.252,51.172,162.783,51.172Z" transform="translate(-85.021 -24.526)" fill="#1b2757"/>
  </g>
</svg>
